<?xml version="1.0" encoding="utf-8"?><!DOCTYPE svg PUBLIC "-//W3C//DTD SVG 1.1//EN" "http://www.w3.org/Graphics/SVG/1.1/DTD/svg11.dtd"><svg version="1.1" xmlns="http://www.w3.org/2000/svg" xmlns:xlink="http://www.w3.org/1999/xlink" width="21.86" height="28" viewBox="0 0 21.86 28" data-code="61748" data-tags="fire-extinguisher"><g fill="#444" transform="scale(0.02734375 0.02734375)"><path d="M292.571 109.714c0-20-16.571-36.571-36.571-36.571s-36.571 16.571-36.571 36.571 16.571 36.571 36.571 36.571 36.571-16.571 36.571-36.571zM804.571 91.429v182.857c0 5.714-2.286 10.857-6.857 14.286-3.429 2.857-7.429 4-11.429 4-1.143 0-2.286 0-4-0.571l-256-54.857c-8-1.714-14.286-9.143-14.286-17.714h-146.286v58.286c83.429 17.143 146.286 90.857 146.286 179.429v457.143c0 20-16.571 36.571-36.571 36.571h-292.571c-20 0-36.571-16.571-36.571-36.571v-457.143c0-81.714 53.714-151.429 128-174.286v-63.429h-18.286c-121.143 0-186.286 125.143-186.857 126.286-6.286 12.571-19.429 20-32.571 20-5.714 0-11.429-1.143-16.571-4-17.714-9.143-25.143-30.857-16-49.143 2.857-5.714 60-116.571 174.857-153.714-8.571-14.286-14.286-30.857-14.286-49.143 0-50.286 41.143-91.429 91.429-91.429s91.429 41.143 91.429 91.429c0 13.143-2.857 25.143-8 36.571h172.571c0-8.571 6.286-16 14.286-17.714l256-54.857c1.714-0.571 2.857-0.571 4-0.571 4 0 8 1.143 11.429 4 4.571 3.429 6.857 8.571 6.857 14.286z" /></g></svg>